<svg xmlns="http://www.w3.org/2000/svg" width="900" height="500" viewBox="0 0 900 500">
<rect width="100%" height="100%" fill="white"/>
<text x="450" y="20" text-anchor="middle" font-size="16" font-family="sans-serif" fill="#111827">Validation mean score and training time</text>
<line x1="70" y1="440" x2="830" y2="440" stroke="#374151"/>
<line x1="70" y1="30" x2="70" y2="440" stroke="#374151"/>
<line x1="830" y1="30" x2="830" y2="440" stroke="#374151"/>
<text x="450" y="482" text-anchor="middle" font-size="13" font-family="sans-serif" fill="#374151">Training iterations</text>
<text x="18" y="235" transform="rotate(-90 18 235)" text-anchor="middle" font-size="13" font-family="sans-serif" fill="#2563eb">Mean score over 100 validation runs</text>
<text x="882" y="235" transform="rotate(90 882 235)" text-anchor="middle" font-size="13" font-family="sans-serif" fill="#f97316">Training time (seconds)</text>
<text x="62" y="444" text-anchor="end" font-size="12" font-family="sans-serif" fill="#6b7280">0</text>
<text x="62" y="239.00" text-anchor="end" font-size="12" font-family="sans-serif" fill="#6b7280">11.8</text>
<text x="62" y="34" text-anchor="end" font-size="12" font-family="sans-serif" fill="#6b7280">23.6</text>
<text x="838" y="444" text-anchor="start" font-size="12" font-family="sans-serif" fill="#6b7280">0</text>
<text x="838" y="239.00" text-anchor="start" font-size="12" font-family="sans-serif" fill="#6b7280">78.6</text>
<text x="838" y="34" text-anchor="start" font-size="12" font-family="sans-serif" fill="#6b7280">157.2</text>
<text x="70" y="460" text-anchor="middle" font-size="12" font-family="sans-serif" fill="#6b7280">0</text>
<text x="830" y="460" text-anchor="middle" font-size="12" font-family="sans-serif" fill="#6b7280">25000</text>
<polyline points="100.40,261.70 130.80,241.18 161.20,207.43 191.60,88.62 222.00,114.02 252.40,173.86 282.80,101.49 313.20,60.96 343.60,100.62 374.00,76.44 404.40,60.27 434.80,59.75 465.20,30.00 495.60,79.05 526.00,44.09 556.40,39.57 586.80,42.87 617.20,62.88 647.60,70.01 678.00,111.23 708.40,64.96 738.80,46.35 769.20,85.32 799.60,54.70 830.00,72.44" fill="none" stroke="#2563eb" stroke-width="3"/>
<polyline points="100.40,434.10 130.80,421.42 161.20,403.07 191.60,396.18 222.00,384.61 252.40,374.43 282.80,366.31 313.20,356.17 343.60,345.92 374.00,332.93 404.40,318.47 434.80,302.26 465.20,283.44 495.60,264.54 526.00,243.56 556.40,220.15 586.80,199.08 617.20,178.34 647.60,157.66 678.00,137.91 708.40,115.47 738.80,94.41 769.20,72.84 799.60,51.12 830.00,30.00" fill="none" stroke="#f97316" stroke-width="3"/>
<circle cx="100.40" cy="261.70" r="4" fill="#2563eb"><title>Iteration 1000: mean score 10.25, training time 2.26s</title></circle><circle cx="100.40" cy="434.10" r="4" fill="#f97316"><title>Iteration 1000: training time 2.26s, mean score 10.25</title></circle>
<circle cx="130.80" cy="241.18" r="4" fill="#2563eb"><title>Iteration 2000: mean score 11.43, training time 7.12s</title></circle><circle cx="130.80" cy="421.42" r="4" fill="#f97316"><title>Iteration 2000: training time 7.12s, mean score 11.43</title></circle>
<circle cx="161.20" cy="207.43" r="4" fill="#2563eb"><title>Iteration 3000: mean score 13.37, training time 14.16s</title></circle><circle cx="161.20" cy="403.07" r="4" fill="#f97316"><title>Iteration 3000: training time 14.16s, mean score 13.37</title></circle>
<circle cx="191.60" cy="88.62" r="4" fill="#2563eb"><title>Iteration 4000: mean score 20.20, training time 16.80s</title></circle><circle cx="191.60" cy="396.18" r="4" fill="#f97316"><title>Iteration 4000: training time 16.80s, mean score 20.20</title></circle>
<circle cx="222.00" cy="114.02" r="4" fill="#2563eb"><title>Iteration 5000: mean score 18.74, training time 21.23s</title></circle><circle cx="222.00" cy="384.61" r="4" fill="#f97316"><title>Iteration 5000: training time 21.23s, mean score 18.74</title></circle>
<circle cx="252.40" cy="173.86" r="4" fill="#2563eb"><title>Iteration 6000: mean score 15.30, training time 25.13s</title></circle><circle cx="252.40" cy="374.43" r="4" fill="#f97316"><title>Iteration 6000: training time 25.13s, mean score 15.30</title></circle>
<circle cx="282.80" cy="101.49" r="4" fill="#2563eb"><title>Iteration 7000: mean score 19.46, training time 28.24s</title></circle><circle cx="282.80" cy="366.31" r="4" fill="#f97316"><title>Iteration 7000: training time 28.24s, mean score 19.46</title></circle>
<circle cx="313.20" cy="60.96" r="4" fill="#2563eb"><title>Iteration 8000: mean score 21.79, training time 32.13s</title></circle><circle cx="313.20" cy="356.17" r="4" fill="#f97316"><title>Iteration 8000: training time 32.13s, mean score 21.79</title></circle>
<circle cx="343.60" cy="100.62" r="4" fill="#2563eb"><title>Iteration 9000: mean score 19.51, training time 36.06s</title></circle><circle cx="343.60" cy="345.92" r="4" fill="#f97316"><title>Iteration 9000: training time 36.06s, mean score 19.51</title></circle>
<circle cx="374.00" cy="76.44" r="4" fill="#2563eb"><title>Iteration 10000: mean score 20.90, training time 41.04s</title></circle><circle cx="374.00" cy="332.93" r="4" fill="#f97316"><title>Iteration 10000: training time 41.04s, mean score 20.90</title></circle>
<circle cx="404.40" cy="60.27" r="4" fill="#2563eb"><title>Iteration 11000: mean score 21.83, training time 46.58s</title></circle><circle cx="404.40" cy="318.47" r="4" fill="#f97316"><title>Iteration 11000: training time 46.58s, mean score 21.83</title></circle>
<circle cx="434.80" cy="59.75" r="4" fill="#2563eb"><title>Iteration 12000: mean score 21.86, training time 52.79s</title></circle><circle cx="434.80" cy="302.26" r="4" fill="#f97316"><title>Iteration 12000: training time 52.79s, mean score 21.86</title></circle>
<circle cx="465.20" cy="30.00" r="4" fill="#2563eb"><title>Iteration 13000: mean score 23.57, training time 60.01s</title></circle><circle cx="465.20" cy="283.44" r="4" fill="#f97316"><title>Iteration 13000: training time 60.01s, mean score 23.57</title></circle>
<circle cx="495.60" cy="79.05" r="4" fill="#2563eb"><title>Iteration 14000: mean score 20.75, training time 67.25s</title></circle><circle cx="495.60" cy="264.54" r="4" fill="#f97316"><title>Iteration 14000: training time 67.25s, mean score 20.75</title></circle>
<circle cx="526.00" cy="44.09" r="4" fill="#2563eb"><title>Iteration 15000: mean score 22.76, training time 75.30s</title></circle><circle cx="526.00" cy="243.56" r="4" fill="#f97316"><title>Iteration 15000: training time 75.30s, mean score 22.76</title></circle>
<circle cx="556.40" cy="39.57" r="4" fill="#2563eb"><title>Iteration 16000: mean score 23.02, training time 84.27s</title></circle><circle cx="556.40" cy="220.15" r="4" fill="#f97316"><title>Iteration 16000: training time 84.27s, mean score 23.02</title></circle>
<circle cx="586.80" cy="42.87" r="4" fill="#2563eb"><title>Iteration 17000: mean score 22.83, training time 92.35s</title></circle><circle cx="586.80" cy="199.08" r="4" fill="#f97316"><title>Iteration 17000: training time 92.35s, mean score 22.83</title></circle>
<circle cx="617.20" cy="62.88" r="4" fill="#2563eb"><title>Iteration 18000: mean score 21.68, training time 100.30s</title></circle><circle cx="617.20" cy="178.34" r="4" fill="#f97316"><title>Iteration 18000: training time 100.30s, mean score 21.68</title></circle>
<circle cx="647.60" cy="70.01" r="4" fill="#2563eb"><title>Iteration 19000: mean score 21.27, training time 108.22s</title></circle><circle cx="647.60" cy="157.66" r="4" fill="#f97316"><title>Iteration 19000: training time 108.22s, mean score 21.27</title></circle>
<circle cx="678.00" cy="111.23" r="4" fill="#2563eb"><title>Iteration 20000: mean score 18.90, training time 115.79s</title></circle><circle cx="678.00" cy="137.91" r="4" fill="#f97316"><title>Iteration 20000: training time 115.79s, mean score 18.90</title></circle>
<circle cx="708.40" cy="64.96" r="4" fill="#2563eb"><title>Iteration 21000: mean score 21.56, training time 124.39s</title></circle><circle cx="708.40" cy="115.47" r="4" fill="#f97316"><title>Iteration 21000: training time 124.39s, mean score 21.56</title></circle>
<circle cx="738.80" cy="46.35" r="4" fill="#2563eb"><title>Iteration 22000: mean score 22.63, training time 132.47s</title></circle><circle cx="738.80" cy="94.41" r="4" fill="#f97316"><title>Iteration 22000: training time 132.47s, mean score 22.63</title></circle>
<circle cx="769.20" cy="85.32" r="4" fill="#2563eb"><title>Iteration 23000: mean score 20.39, training time 140.73s</title></circle><circle cx="769.20" cy="72.84" r="4" fill="#f97316"><title>Iteration 23000: training time 140.73s, mean score 20.39</title></circle>
<circle cx="799.60" cy="54.70" r="4" fill="#2563eb"><title>Iteration 24000: mean score 22.15, training time 149.06s</title></circle><circle cx="799.60" cy="51.12" r="4" fill="#f97316"><title>Iteration 24000: training time 149.06s, mean score 22.15</title></circle>
<circle cx="830.00" cy="72.44" r="4" fill="#2563eb"><title>Iteration 25000: mean score 21.13, training time 157.15s</title></circle><circle cx="830.00" cy="30.00" r="4" fill="#f97316"><title>Iteration 25000: training time 157.15s, mean score 21.13</title></circle>
<text x="100.40" y="251.70" text-anchor="middle" font-size="12" fill="#111827">10.25</text>
<text x="130.80" y="231.18" text-anchor="middle" font-size="12" fill="#111827">11.43</text>
<text x="161.20" y="197.43" text-anchor="middle" font-size="12" fill="#111827">13.37</text>
<text x="191.60" y="78.62" text-anchor="middle" font-size="12" fill="#111827">20.20</text>
<text x="222.00" y="104.02" text-anchor="middle" font-size="12" fill="#111827">18.74</text>
<text x="252.40" y="163.86" text-anchor="middle" font-size="12" fill="#111827">15.30</text>
<text x="282.80" y="91.49" text-anchor="middle" font-size="12" fill="#111827">19.46</text>
<text x="313.20" y="50.96" text-anchor="middle" font-size="12" fill="#111827">21.79</text>
<text x="343.60" y="90.62" text-anchor="middle" font-size="12" fill="#111827">19.51</text>
<text x="374.00" y="66.44" text-anchor="middle" font-size="12" fill="#111827">20.90</text>
<text x="404.40" y="50.27" text-anchor="middle" font-size="12" fill="#111827">21.83</text>
<text x="434.80" y="49.75" text-anchor="middle" font-size="12" fill="#111827">21.86</text>
<text x="465.20" y="20.00" text-anchor="middle" font-size="12" fill="#111827">23.57</text>
<text x="495.60" y="69.05" text-anchor="middle" font-size="12" fill="#111827">20.75</text>
<text x="526.00" y="34.09" text-anchor="middle" font-size="12" fill="#111827">22.76</text>
<text x="556.40" y="29.57" text-anchor="middle" font-size="12" fill="#111827">23.02</text>
<text x="586.80" y="32.87" text-anchor="middle" font-size="12" fill="#111827">22.83</text>
<text x="617.20" y="52.88" text-anchor="middle" font-size="12" fill="#111827">21.68</text>
<text x="647.60" y="60.01" text-anchor="middle" font-size="12" fill="#111827">21.27</text>
<text x="678.00" y="101.23" text-anchor="middle" font-size="12" fill="#111827">18.90</text>
<text x="708.40" y="54.96" text-anchor="middle" font-size="12" fill="#111827">21.56</text>
<text x="738.80" y="36.35" text-anchor="middle" font-size="12" fill="#111827">22.63</text>
<text x="769.20" y="75.32" text-anchor="middle" font-size="12" fill="#111827">20.39</text>
<text x="799.60" y="44.70" text-anchor="middle" font-size="12" fill="#111827">22.15</text>
<text x="830.00" y="62.44" text-anchor="middle" font-size="12" fill="#111827">21.13</text>
</svg>
